<?xml version="1.0" encoding="UTF-8"?>
<svg width="599px" height="477px" viewBox="0 0 599 477" version="1.1" xmlns="http://www.w3.org/2000/svg" xmlns:xlink="http://www.w3.org/1999/xlink">
    <!-- Generator: Sketch 46.2 (44496) - http://www.bohemiancoding.com/sketch -->
    <title>Logo square</title>
    <desc>Created with Sketch.</desc>
    <defs></defs>
    <g id="Page-1" stroke="none" stroke-width="1" fill="none" fill-rule="evenodd">
        <g id="Logo-square">
            <path d="M18,190 C18,341.326021 133.510535,464 276,464 C418.489465,464 534,341.326021 534,190 L18,190 Z" id="Combined-Shape" fill="#ED4985"></path>
            <rect id="Rectangle-2" fill="#ED4985" x="192" y="447" width="168" height="17" rx="4"></rect>
            <path d="M584.254739,63.451466 L597.020354,72.0245101 C598.302219,72.8853759 598.325581,74.6478408 597.072535,75.9610858 L353.739425,330.984467 C352.48638,332.297712 351.302689,333.249553 351.095579,333.110463 L349.033041,331.725318 C348.825931,331.586228 349.614017,330.36871 350.793281,329.005915 L579.798472,64.360289 C580.977736,62.9974942 582.972875,62.5906003 584.254739,63.451466 Z" id="Rectangle-3" fill="#ED4985"></path>
            <path d="M539.545734,59.2828345 L553.57517,66.2453004 C554.983942,66.9444393 555.292436,68.6869573 554.264212,70.1373233 L354.589862,351.788686 C353.561638,353.239052 352.543579,354.323234 352.315964,354.210275 L350.049231,353.085351 C349.821616,352.972391 350.404905,351.672443 351.352044,350.181836 L535.279982,60.7159145 C536.22712,59.2253074 538.136962,58.5836956 539.545734,59.2828345 Z" id="Rectangle-3" fill="#ED4985"></path>
            <g id="Group" transform="translate(158.000000, 20.000000)" stroke="#F34479" stroke-width="15">
                <path d="M112,0 C118.4,15 124,46 120,72 C116,98 121.6,126 124,140" id="Path-3" transform="translate(118.000000, 70.000000) rotate(11.000000) translate(-118.000000, -70.000000) "></path>
                <path d="M208,0 C214.4,15 220,46 216,72 C212,98 217.6,126 220,140" id="Path-3" transform="translate(214.000000, 70.000000) rotate(11.000000) translate(-214.000000, -70.000000) "></path>
                <path d="M14,0 C20.4,15 26,46 22,72 C18,98 23.6,126 26,140" id="Path-3" transform="translate(20.000000, 70.000000) rotate(11.000000) translate(-20.000000, -70.000000) "></path>
            </g>
        </g>
    </g>
</svg>