<svg xmlns="http://www.w3.org/2000/svg" width="1920" height="1080"><path d="M492,-261L745,-250L909,-259Z" fill="#c0dbec" stroke="#c0dbec" stroke-width="1.51"/><path d="M492,-261L909,-259L1153,-273Z" fill="#b6d5eb" stroke="#b6d5eb" stroke-width="1.51"/><path d="M-68,-301L492,-261L1153,-273Z" fill="#cde2f1" stroke="#cde2f1" stroke-width="1.51"/><path d="M-294,-321L-68,-301L1153,-273Z" fill="#ddeaf7" stroke="#ddeaf7" stroke-width="1.51"/><path d="M364,1337L-96,1367L1205,1341Z" fill="#6783b2" stroke="#6783b2" stroke-width="1.51"/><path d="M801,1302L564,1311L1205,1341Z" fill="#4c7aaf" stroke="#4c7aaf" stroke-width="1.51"/><path d="M564,1311L364,1337L1205,1341Z" fill="#587eb0" stroke="#587eb0" stroke-width="1.51"/><path d="M1620,1308L1416,1336L1801,1324Z" fill="#17599c" stroke="#17599c" stroke-width="1.51"/><path d="M1153,-273L1360,-274L2105,-323Z" fill="#98b5db" stroke="#98b5db" stroke-width="1.51"/><path d="M-294,-321L1153,-273L2105,-323Z" fill="#b0d1e9" stroke="#b0d1e9" stroke-width="1.51"/><path d="M1360,-274L1541,-262L2105,-323Z" fill="#94add6" stroke="#94add6" stroke-width="1.51"/><path d="M1541,-262L1779,-198L2105,-323Z" fill="#8fa5d1" stroke="#8fa5d1" stroke-width="1.51"/><path d="M2097,272L2025,359L2112,526Z" fill="#577eb1" stroke="#577eb1" stroke-width="1.51"/><path d="M1205,1341L-96,1367L2198,1400Z" fill="#376ca4" stroke="#376ca4" stroke-width="1.51"/><path d="M1416,1336L1205,1341L2198,1400Z" fill="#165698" stroke="#165698" stroke-width="1.51"/><path d="M1988,1336L1801,1324L2198,1400Z" fill="#094388" stroke="#094388" stroke-width="1.51"/><path d="M1801,1324L1416,1336L2198,1400Z" fill="#0f4d91" stroke="#0f4d91" stroke-width="1.51"/><path d="M2182,1156L1988,1336L2198,1400Z" fill="#094184" stroke="#094184" stroke-width="1.51"/><path d="M2097,272L2112,526L2203,126Z" fill="#5e80ae" stroke="#5e80ae" stroke-width="1.51"/><path d="M1944,729L2140,984L2207,724Z" fill="#2764a2" stroke="#2764a2" stroke-width="1.51"/><path d="M2140,984L2182,1156L2207,724Z" fill="#1a5697" stroke="#1a5697" stroke-width="1.51"/><path d="M2203,126L2112,526L2207,724Z" fill="#4c75a8" stroke="#4c75a8" stroke-width="1.51"/><path d="M2182,1156L2198,1400L2207,724Z" fill="#114c8e" stroke="#114c8e" stroke-width="1.51"/><path d="M2105,-323L1984,-222L2223,-24Z" fill="#8292bd" stroke="#8292bd" stroke-width="1.51"/><path d="M1984,-222L1935,-87L2223,-24Z" fill="#8092c0" stroke="#8092c0" stroke-width="1.51"/><path d="M1978,140L2203,126L2223,-24Z" fill="#7387b6" stroke="#7387b6" stroke-width="1.51"/><path d="M1935,-87L1978,140L2223,-24Z" fill="#798fbe" stroke="#798fbe" stroke-width="1.51"/><path d="M2203,126L2207,724L2223,-24Z" fill="#5f7da9" stroke="#5f7da9" stroke-width="1.51"/><path d="M1944,729L1911,923L2140,984Z" fill="#2265a7" stroke="#2265a7" stroke-width="1.51"/><path d="M1978,140L2097,272L2203,126Z" fill="#6b86b6" stroke="#6b86b6" stroke-width="1.51"/><path d="M2112,526L1944,729L2207,724Z" fill="#366ea9" stroke="#366ea9" stroke-width="1.51"/><path d="M2025,359L2020,482L2112,526Z" fill="#4e7cb2" stroke="#4e7cb2" stroke-width="1.51"/><path d="M2140,984L1946,1146L2182,1156Z" fill="#115196" stroke="#115196" stroke-width="1.51"/><path d="M1946,1146L1988,1336L2182,1156Z" fill="#094b94" stroke="#094b94" stroke-width="1.51"/><path d="M1779,-198L1984,-222L2105,-323Z" fill="#8b9cca" stroke="#8b9cca" stroke-width="1.51"/><path d="M2020,482L1944,729L2112,526Z" fill="#4077b0" stroke="#4077b0" stroke-width="1.51"/><path d="M1911,923L1946,1146L2140,984Z" fill="#155ba2" stroke="#155ba2" stroke-width="1.51"/><path d="M1978,140L2025,359L2097,272Z" fill="#6687b9" stroke="#6687b9" stroke-width="1.51"/><path d="M1738,559L1944,729L2020,482Z" fill="#417db8" stroke="#417db8" stroke-width="1.51"/><path d="M1760,284L1738,559L2020,482Z" fill="#5488bf" stroke="#5488bf" stroke-width="1.51"/><path d="M1978,140L1793,190L2025,359Z" fill="#6a8ec1" stroke="#6a8ec1" stroke-width="1.51"/><path d="M1793,190L1760,284L2025,359Z" fill="#6890c3" stroke="#6890c3" stroke-width="1.51"/><path d="M1760,284L2020,482L2025,359Z" fill="#5b87bd" stroke="#5b87bd" stroke-width="1.51"/><path d="M1732,-81L1793,190L1935,-87Z" fill="#7f9bcb" stroke="#7f9bcb" stroke-width="1.51"/><path d="M1911,923L1779,1120L1946,1146Z" fill="#155ea6" stroke="#155ea6" stroke-width="1.51"/><path d="M1935,-87L1793,190L1978,140Z" fill="#7995c7" stroke="#7995c7" stroke-width="1.51"/><path d="M1779,-198L1935,-87L1984,-222Z" fill="#889ccb" stroke="#889ccb" stroke-width="1.51"/><path d="M1946,1146L1801,1324L1988,1336Z" fill="#0a4e97" stroke="#0a4e97" stroke-width="1.51"/><path d="M1718,963L1779,1120L1911,923Z" fill="#1b66ad" stroke="#1b66ad" stroke-width="1.51"/><path d="M1696,790L1911,923L1944,729Z" fill="#2a72b2" stroke="#2a72b2" stroke-width="1.51"/><path d="M1738,559L1696,790L1944,729Z" fill="#387cb9" stroke="#387cb9" stroke-width="1.51"/><path d="M1779,1120L1801,1324L1946,1146Z" fill="#0f57a0" stroke="#0f57a0" stroke-width="1.51"/><path d="M1779,-198L1732,-81L1935,-87Z" fill="#87a0ce" stroke="#87a0ce" stroke-width="1.51"/><path d="M1696,790L1718,963L1911,923Z" fill="#2670b2" stroke="#2670b2" stroke-width="1.51"/><path d="M1594,522L1738,559L1760,284Z" fill="#568fc4" stroke="#568fc4" stroke-width="1.51"/><path d="M1532,338L1594,522L1760,284Z" fill="#6197c9" stroke="#6197c9" stroke-width="1.51"/><path d="M1732,-81L1614,141L1793,190Z" fill="#7e9fce" stroke="#7e9fce" stroke-width="1.51"/><path d="M1779,1120L1611,1189L1801,1324Z" fill="#135ba4" stroke="#135ba4" stroke-width="1.51"/><path d="M1611,1189L1620,1308L1801,1324Z" fill="#14599f" stroke="#14599f" stroke-width="1.51"/><path d="M1614,141L1760,284L1793,190Z" fill="#729aca" stroke="#729aca" stroke-width="1.51"/><path d="M1603,-87L1614,141L1732,-81Z" fill="#84a5d3" stroke="#84a5d3" stroke-width="1.51"/><path d="M1550,727L1696,790L1738,559Z" fill="#3b83be" stroke="#3b83be" stroke-width="1.51"/><path d="M1603,-87L1732,-81L1779,-198Z" fill="#8aa6d3" stroke="#8aa6d3" stroke-width="1.51"/><path d="M1541,-262L1603,-87L1779,-198Z" fill="#8eabd6" stroke="#8eabd6" stroke-width="1.51"/><path d="M1718,963L1611,1189L1779,1120Z" fill="#1a65ac" stroke="#1a65ac" stroke-width="1.51"/><path d="M935,1293L801,1302L1205,1341Z" fill="#4175ad" stroke="#4175ad" stroke-width="1.51"/><path d="M1594,522L1550,727L1738,559Z" fill="#458ac3" stroke="#458ac3" stroke-width="1.51"/><path d="M1614,141L1532,338L1760,284Z" fill="#6f9dcc" stroke="#6f9dcc" stroke-width="1.51"/><path d="M1696,790L1503,903L1718,963Z" fill="#2977b8" stroke="#2977b8" stroke-width="1.51"/><path d="M1503,903L1611,1189L1718,963Z" fill="#206fb3" stroke="#206fb3" stroke-width="1.51"/><path d="M1550,727L1503,903L1696,790Z" fill="#3280bd" stroke="#3280bd" stroke-width="1.51"/><path d="M1367,518L1550,727L1594,522Z" fill="#4b92c7" stroke="#4b92c7" stroke-width="1.51"/><path d="M1503,903L1408,954L1611,1189Z" fill="#2674b6" stroke="#2674b6" stroke-width="1.51"/><path d="M1408,954L1327,1134L1611,1189Z" fill="#2771b3" stroke="#2771b3" stroke-width="1.51"/><path d="M1322,206L1532,338L1614,141Z" fill="#76a6d1" stroke="#76a6d1" stroke-width="1.51"/><path d="M1603,-87L1353,-102L1614,141Z" fill="#88add7" stroke="#88add7" stroke-width="1.51"/><path d="M1353,-102L1322,206L1614,141Z" fill="#86aed7" stroke="#86aed7" stroke-width="1.51"/><path d="M1611,1189L1416,1336L1620,1308Z" fill="#1c5fa3" stroke="#1c5fa3" stroke-width="1.51"/><path d="M1541,-262L1353,-102L1603,-87Z" fill="#91b2da" stroke="#91b2da" stroke-width="1.51"/><path d="M1532,338L1367,518L1594,522Z" fill="#5b99cb" stroke="#5b99cb" stroke-width="1.51"/><path d="M1327,1134L1416,1336L1611,1189Z" fill="#2368ac" stroke="#2368ac" stroke-width="1.51"/><path d="M1329,338L1367,518L1532,338Z" fill="#66a2cf" stroke="#66a2cf" stroke-width="1.51"/><path d="M1322,206L1329,338L1532,338Z" fill="#73a9d1" stroke="#73a9d1" stroke-width="1.51"/><path d="M1360,-274L1353,-102L1541,-262Z" fill="#98b8dd" stroke="#98b8dd" stroke-width="1.51"/><path d="M1309,672L1503,903L1550,727Z" fill="#3b89c2" stroke="#3b89c2" stroke-width="1.51"/><path d="M1367,518L1309,672L1550,727Z" fill="#4a93c8" stroke="#4a93c8" stroke-width="1.51"/><path d="M1309,672L1408,954L1503,903Z" fill="#3885c0" stroke="#3885c0" stroke-width="1.51"/><path d="M-68,-301L360,-245L492,-261Z" fill="#dce9f6" stroke="#dce9f6" stroke-width="1.51"/><path d="M1193,1203L1205,1341L1327,1134Z" fill="#3072b1" stroke="#3072b1" stroke-width="1.51"/><path d="M1174,130L1322,206L1353,-102Z" fill="#8bb6db" stroke="#8bb6db" stroke-width="1.51"/><path d="M1309,672L1182,757L1408,954Z" fill="#408fc5" stroke="#408fc5" stroke-width="1.51"/><path d="M1182,757L1151,872L1408,954Z" fill="#3f8cc4" stroke="#3f8cc4" stroke-width="1.51"/><path d="M1327,1134L1205,1341L1416,1336Z" fill="#2a6baa" stroke="#2a6baa" stroke-width="1.51"/><path d="M1151,872L1327,1134L1408,954Z" fill="#3381bd" stroke="#3381bd" stroke-width="1.51"/><path d="M1094,-74L1174,130L1353,-102Z" fill="#94bddf" stroke="#94bddf" stroke-width="1.51"/><path d="M1153,-273L1353,-102L1360,-274Z" fill="#9cc0e0" stroke="#9cc0e0" stroke-width="1.51"/><path d="M1329,338L1177,541L1367,518Z" fill="#62a4d0" stroke="#62a4d0" stroke-width="1.51"/><path d="M1177,541L1309,672L1367,518Z" fill="#549dcd" stroke="#549dcd" stroke-width="1.51"/><path d="M1151,872L1193,1203L1327,1134Z" fill="#367eba" stroke="#367eba" stroke-width="1.51"/><path d="M1153,-273L1094,-74L1353,-102Z" fill="#9dc2e1" stroke="#9dc2e1" stroke-width="1.51"/><path d="M1322,206L1137,298L1329,338Z" fill="#79b0d5" stroke="#79b0d5" stroke-width="1.51"/><path d="M1137,298L1177,541L1329,338Z" fill="#6facd3" stroke="#6facd3" stroke-width="1.51"/><path d="M1174,130L1137,298L1322,206Z" fill="#83b5d9" stroke="#83b5d9" stroke-width="1.51"/><path d="M1177,541L1182,757L1309,672Z" fill="#519bcb" stroke="#519bcb" stroke-width="1.51"/><path d="M1094,-74L1027,-60L1174,130Z" fill="#99c1e1" stroke="#99c1e1" stroke-width="1.51"/><path d="M1137,298L992,489L1177,541Z" fill="#6faed5" stroke="#6faed5" stroke-width="1.51"/><path d="M992,489L990,778L1177,541Z" fill="#60a6d1" stroke="#60a6d1" stroke-width="1.51"/><path d="M1177,541L990,778L1182,757Z" fill="#559dcc" stroke="#559dcc" stroke-width="1.51"/><path d="M989,954L900,1092L1193,1203Z" fill="#4485bf" stroke="#4485bf" stroke-width="1.51"/><path d="M1151,872L989,954L1193,1203Z" fill="#4087c1" stroke="#4087c1" stroke-width="1.51"/><path d="M1193,1203L935,1293L1205,1341Z" fill="#3972ae" stroke="#3972ae" stroke-width="1.51"/><path d="M1022,290L1137,298L1174,130Z" fill="#85b8db" stroke="#85b8db" stroke-width="1.51"/><path d="M900,1092L935,1293L1193,1203Z" fill="#427eb9" stroke="#427eb9" stroke-width="1.51"/><path d="M1022,290L992,489L1137,298Z" fill="#7cb5d9" stroke="#7cb5d9" stroke-width="1.51"/><path d="M950,197L1022,290L1174,130Z" fill="#8cbcdd" stroke="#8cbcdd" stroke-width="1.51"/><path d="M990,778L1151,872L1182,757Z" fill="#4c96c9" stroke="#4c96c9" stroke-width="1.51"/><path d="M1027,-60L950,197L1174,130Z" fill="#97c0e1" stroke="#97c0e1" stroke-width="1.51"/><path d="M909,-259L1027,-60L1094,-74Z" fill="#a5cae6" stroke="#a5cae6" stroke-width="1.51"/><path d="M909,-259L1094,-74L1153,-273Z" fill="#a6cae5" stroke="#a6cae5" stroke-width="1.51"/><path d="M990,778L989,954L1151,872Z" fill="#4d95c8" stroke="#4d95c8" stroke-width="1.51"/><path d="M764,-68L731,97L950,197Z" fill="#a7cbe5" stroke="#a7cbe5" stroke-width="1.51"/><path d="M790,573L990,778L992,489Z" fill="#68abd4" stroke="#68abd4" stroke-width="1.51"/><path d="M752,360L992,489L1022,290Z" fill="#81b9db" stroke="#81b9db" stroke-width="1.51"/><path d="M764,-68L950,197L1027,-60Z" fill="#a2c9e5" stroke="#a2c9e5" stroke-width="1.51"/><path d="M909,-259L764,-68L1027,-60Z" fill="#abcfe8" stroke="#abcfe8" stroke-width="1.51"/><path d="M950,197L752,360L1022,290Z" fill="#8dbfde" stroke="#8dbfde" stroke-width="1.51"/><path d="M900,1092L791,1180L935,1293Z" fill="#4e83bc" stroke="#4e83bc" stroke-width="1.51"/><path d="M790,573L722,713L990,778Z" fill="#6aaad3" stroke="#6aaad3" stroke-width="1.51"/><path d="M749,880L989,954L990,778Z" fill="#579acb" stroke="#579acb" stroke-width="1.51"/><path d="M752,360L790,573L992,489Z" fill="#7db7da" stroke="#7db7da" stroke-width="1.51"/><path d="M722,713L749,880L990,778Z" fill="#63a4d0" stroke="#63a4d0" stroke-width="1.51"/><path d="M749,880L900,1092L989,954Z" fill="#5593c8" stroke="#5593c8" stroke-width="1.51"/><path d="M745,-250L764,-68L909,-259Z" fill="#b5d5ea" stroke="#b5d5ea" stroke-width="1.51"/><path d="M791,1180L801,1302L935,1293Z" fill="#4f7fb6" stroke="#4f7fb6" stroke-width="1.51"/><path d="M731,97L752,360L950,197Z" fill="#9ac6e1" stroke="#9ac6e1" stroke-width="1.51"/><path d="M749,880L791,1180L900,1092Z" fill="#5890c5" stroke="#5890c5" stroke-width="1.51"/><path d="M501,920L602,1168L749,880Z" fill="#6a9dcc" stroke="#6a9dcc" stroke-width="1.51"/><path d="M731,97L543,189L752,360Z" fill="#a4cce3" stroke="#a4cce3" stroke-width="1.51"/><path d="M543,189L538,310L752,360Z" fill="#a2cbe2" stroke="#a2cbe2" stroke-width="1.51"/><path d="M752,360L499,576L790,573Z" fill="#86bcdc" stroke="#86bcdc" stroke-width="1.51"/><path d="M749,880L602,1168L791,1180Z" fill="#6092c5" stroke="#6092c5" stroke-width="1.51"/><path d="M791,1180L602,1168L801,1302Z" fill="#5a87bd" stroke="#5a87bd" stroke-width="1.51"/><path d="M602,1168L564,1311L801,1302Z" fill="#5f86b9" stroke="#5f86b9" stroke-width="1.51"/><path d="M745,-250L561,-82L764,-68Z" fill="#bbd8eb" stroke="#bbd8eb" stroke-width="1.51"/><path d="M499,576L722,713L790,573Z" fill="#7db5d8" stroke="#7db5d8" stroke-width="1.51"/><path d="M722,713L534,791L749,880Z" fill="#70aad2" stroke="#70aad2" stroke-width="1.51"/><path d="M538,310L499,576L752,360Z" fill="#96c4e0" stroke="#96c4e0" stroke-width="1.51"/><path d="M561,-82L731,97L764,-68Z" fill="#b5d4e9" stroke="#b5d4e9" stroke-width="1.51"/><path d="M492,-261L561,-82L745,-250Z" fill="#c4ddee" stroke="#c4ddee" stroke-width="1.51"/><path d="M534,791L501,920L749,880Z" fill="#72a7d1" stroke="#72a7d1" stroke-width="1.51"/><path d="M561,-82L543,189L731,97Z" fill="#b5d4e9" stroke="#b5d4e9" stroke-width="1.51"/><path d="M499,576L534,791L722,713Z" fill="#7db4d7" stroke="#7db4d7" stroke-width="1.51"/><path d="M-68,-301L126,-216L360,-245Z" fill="#dfebf7" stroke="#dfebf7" stroke-width="1.51"/><path d="M499,576L395,712L534,791Z" fill="#85b6da" stroke="#85b6da" stroke-width="1.51"/><path d="M383,508L499,576L538,310Z" fill="#98c4e1" stroke="#98c4e1" stroke-width="1.51"/><path d="M390,143L543,189L561,-82Z" fill="#bbd6eb" stroke="#bbd6eb" stroke-width="1.51"/><path d="M340,1L390,143L561,-82Z" fill="#c2daed" stroke="#c2daed" stroke-width="1.51"/><path d="M501,920L310,1087L602,1168Z" fill="#729bcb" stroke="#729bcb" stroke-width="1.51"/><path d="M364,1337L564,1311L602,1168Z" fill="#6989ba" stroke="#6989ba" stroke-width="1.51"/><path d="M310,1087L364,1337L602,1168Z" fill="#7191c4" stroke="#7191c4" stroke-width="1.51"/><path d="M124,1284L-96,1367L364,1337Z" fill="#7a8dba" stroke="#7a8dba" stroke-width="1.51"/><path d="M392,298L383,508L538,310Z" fill="#a5cbe3" stroke="#a5cbe3" stroke-width="1.51"/><path d="M492,-261L360,-245L561,-82Z" fill="#cce1f0" stroke="#cce1f0" stroke-width="1.51"/><path d="M360,-245L340,1L561,-82Z" fill="#cadff0" stroke="#cadff0" stroke-width="1.51"/><path d="M392,298L538,310L543,189Z" fill="#acd0e5" stroke="#acd0e5" stroke-width="1.51"/><path d="M346,921L310,1087L501,920Z" fill="#7ba3d1" stroke="#7ba3d1" stroke-width="1.51"/><path d="M390,143L392,298L543,189Z" fill="#b4d3e9" stroke="#b4d3e9" stroke-width="1.51"/><path d="M346,921L501,920L534,791Z" fill="#7ba9d4" stroke="#7ba9d4" stroke-width="1.51"/><path d="M395,712L346,921L534,791Z" fill="#81b0d7" stroke="#81b0d7" stroke-width="1.51"/><path d="M383,508L395,712L499,576Z" fill="#8fbede" stroke="#8fbede" stroke-width="1.51"/><path d="M227,-70L340,1L360,-245Z" fill="#d1e2f3" stroke="#d1e2f3" stroke-width="1.51"/><path d="M310,1087L161,1151L364,1337Z" fill="#7a95c7" stroke="#7a95c7" stroke-width="1.51"/><path d="M161,1151L124,1284L364,1337Z" fill="#7a92c2" stroke="#7a92c2" stroke-width="1.51"/><path d="M130,316L114,483L383,508Z" fill="#aacde6" stroke="#aacde6" stroke-width="1.51"/><path d="M390,143L107,192L392,298Z" fill="#bcd7eb" stroke="#bcd7eb" stroke-width="1.51"/><path d="M107,192L130,316L392,298Z" fill="#bad6ea" stroke="#bad6ea" stroke-width="1.51"/><path d="M130,316L383,508L392,298Z" fill="#adcfe6" stroke="#adcfe6" stroke-width="1.51"/><path d="M94,769L346,921L395,712Z" fill="#8ab4da" stroke="#8ab4da" stroke-width="1.51"/><path d="M383,508L114,483L395,712Z" fill="#99c3e2" stroke="#99c3e2" stroke-width="1.51"/><path d="M114,483L94,769L395,712Z" fill="#97bfe0" stroke="#97bfe0" stroke-width="1.51"/><path d="M340,1L107,192L390,143Z" fill="#c5dbef" stroke="#c5dbef" stroke-width="1.51"/><path d="M197,1000L310,1087L346,921Z" fill="#80a4d2" stroke="#80a4d2" stroke-width="1.51"/><path d="M126,-216L227,-70L360,-245Z" fill="#d7e6f5" stroke="#d7e6f5" stroke-width="1.51"/><path d="M227,-70L107,192L340,1Z" fill="#ccdef1" stroke="#ccdef1" stroke-width="1.51"/><path d="M94,769L197,1000L346,921Z" fill="#88aed7" stroke="#88aed7" stroke-width="1.51"/><path d="M197,1000L161,1151L310,1087Z" fill="#809fce" stroke="#809fce" stroke-width="1.51"/><path d="M-94,-67L-101,92L107,192Z" fill="#d4e4f4" stroke="#d4e4f4" stroke-width="1.51"/><path d="M-51,595L94,769L114,483Z" fill="#9fc5e3" stroke="#9fc5e3" stroke-width="1.51"/><path d="M94,769L12,902L197,1000Z" fill="#8db0d9" stroke="#8db0d9" stroke-width="1.51"/><path d="M126,-216L-94,-67L227,-70Z" fill="#dae8f6" stroke="#dae8f6" stroke-width="1.51"/><path d="M-94,-67L107,192L227,-70Z" fill="#d3e3f4" stroke="#d3e3f4" stroke-width="1.51"/><path d="M-53,1119L161,1151L197,1000Z" fill="#84a1cf" stroke="#84a1cf" stroke-width="1.51"/><path d="M12,902L-53,1119L197,1000Z" fill="#89a9d4" stroke="#89a9d4" stroke-width="1.51"/><path d="M-51,595L-54,684L94,769Z" fill="#9dc2e2" stroke="#9dc2e2" stroke-width="1.51"/><path d="M-53,1119L124,1284L161,1151Z" fill="#829aca" stroke="#829aca" stroke-width="1.51"/><path d="M-68,-301L-94,-67L126,-216Z" fill="#e2edf8" stroke="#e2edf8" stroke-width="1.51"/><path d="M-50,338L114,483L130,316Z" fill="#b5d4e9" stroke="#b5d4e9" stroke-width="1.51"/><path d="M107,192L-50,338L130,316Z" fill="#bed9ec" stroke="#bed9ec" stroke-width="1.51"/><path d="M-53,1119L-96,1367L124,1284Z" fill="#8397c5" stroke="#8397c5" stroke-width="1.51"/><path d="M-50,338L-51,595L114,483Z" fill="#aed0e8" stroke="#aed0e8" stroke-width="1.51"/><path d="M-101,92L-50,338L107,192Z" fill="#c8deef" stroke="#c8deef" stroke-width="1.51"/><path d="M-54,684L12,902L94,769Z" fill="#95bbdd" stroke="#95bbdd" stroke-width="1.51"/><path d="M-296,521L-51,595L-50,338Z" fill="#b2d3ea" stroke="#b2d3ea" stroke-width="1.51"/><path d="M-101,92L-231,301L-50,338Z" fill="#c9e0ef" stroke="#c9e0ef" stroke-width="1.51"/><path d="M-54,684L-213,800L12,902Z" fill="#98bcdf" stroke="#98bcdf" stroke-width="1.51"/><path d="M-250,992L-53,1119L12,902Z" fill="#8facd6" stroke="#8facd6" stroke-width="1.51"/><path d="M-213,800L-250,992L12,902Z" fill="#96b6db" stroke="#96b6db" stroke-width="1.51"/><path d="M-258,106L-231,301L-101,92Z" fill="#d3e4f3" stroke="#d3e4f3" stroke-width="1.51"/><path d="M-214,1111L-250,1343L-96,1367Z" fill="#8998c5" stroke="#8998c5" stroke-width="1.51"/><path d="M-294,-321L-94,-67L-68,-301Z" fill="#e9f2fa" stroke="#e9f2fa" stroke-width="1.51"/><path d="M-296,521L-213,800L-54,684Z" fill="#a5c8e4" stroke="#a5c8e4" stroke-width="1.51"/><path d="M-250,992L-214,1111L-53,1119Z" fill="#90a9d4" stroke="#90a9d4" stroke-width="1.51"/><path d="M-214,1111L-96,1367L-53,1119Z" fill="#899dcc" stroke="#899dcc" stroke-width="1.51"/><path d="M-296,521L-54,684L-51,595Z" fill="#a8cbe6" stroke="#a8cbe6" stroke-width="1.51"/><path d="M-231,301L-296,521L-50,338Z" fill="#bfdaec" stroke="#bfdaec" stroke-width="1.51"/><path d="M-303,-23L-258,106L-101,92Z" fill="#dce9f6" stroke="#dce9f6" stroke-width="1.51"/><path d="M-303,-23L-101,92L-94,-67Z" fill="#dde9f7" stroke="#dde9f7" stroke-width="1.51"/><path d="M-294,-321L-303,-23L-94,-67Z" fill="#e7f0fa" stroke="#e7f0fa" stroke-width="1.51"/><path d="M-250,992L-250,1343L-214,1111Z" fill="#90a4cf" stroke="#90a4cf" stroke-width="1.51"/><path d="M-296,521L-250,992L-213,800Z" fill="#a0c3e2" stroke="#a0c3e2" stroke-width="1.51"/><path d="M-258,106L-296,521L-231,301Z" fill="#c9e0ef" stroke="#c9e0ef" stroke-width="1.51"/><path d="M-303,-23L-296,521L-258,106Z" fill="#d3e5f3" stroke="#d3e5f3" stroke-width="1.51"/><path d="M-250,992L-296,521L-250,1343Z" fill="#98b4db" stroke="#98b4db" stroke-width="1.51"/></svg>