<svg xmlns="http://www.w3.org/2000/svg" width="1920" height="1080"><path d="M603,-221L816,-193L1164,-205Z" fill="#bee5d3" stroke="#bee5d3" stroke-width="1.51"/><path d="M937,1278L651,1309L1307,1309Z" fill="#4f8aaa" stroke="#4f8aaa" stroke-width="1.51"/><path d="M603,-221L1164,-205L1437,-222Z" fill="#b2ded9" stroke="#b2ded9" stroke-width="1.51"/><path d="M323,-232L603,-221L1437,-222Z" fill="#c3e7d3" stroke="#c3e7d3" stroke-width="1.51"/><path d="M323,-232L1437,-222L1906,-244Z" fill="#abd8de" stroke="#abd8de" stroke-width="1.51"/><path d="M-233,-246L323,-232L1906,-244Z" fill="#ccebd0" stroke="#ccebd0" stroke-width="1.51"/><path d="M1437,-222L1650,-212L1906,-244Z" fill="#99bbd2" stroke="#99bbd2" stroke-width="1.51"/><path d="M1654,1290L1499,1308L1974,1273Z" fill="#1765a3" stroke="#1765a3" stroke-width="1.51"/><path d="M1800,1253L1654,1290L1974,1273Z" fill="#1161a2" stroke="#1161a2" stroke-width="1.51"/><path d="M2076,486L2088,657L2103,330Z" fill="#578ca9" stroke="#578ca9" stroke-width="1.51"/><path d="M2103,330L2088,657L2104,968Z" fill="#4183ad" stroke="#4183ad" stroke-width="1.51"/><path d="M2088,657L2090,803L2104,968Z" fill="#2d79ae" stroke="#2d79ae" stroke-width="1.51"/><path d="M1990,168L2103,330L2121,141Z" fill="#7597a9" stroke="#7597a9" stroke-width="1.51"/><path d="M2104,1081L1991,1123L2136,1263Z" fill="#0a5c9e" stroke="#0a5c9e" stroke-width="1.51"/><path d="M1991,1123L1974,1273L2136,1263Z" fill="#0a589b" stroke="#0a589b" stroke-width="1.51"/><path d="M2104,968L2104,1081L2136,1263Z" fill="#115d9e" stroke="#115d9e" stroke-width="1.51"/><path d="M1990,168L2121,141L2147,-8Z" fill="#7e99ad" stroke="#7e99ad" stroke-width="1.51"/><path d="M1914,-56L1990,168L2147,-8Z" fill="#839fb6" stroke="#839fb6" stroke-width="1.51"/><path d="M2121,141L2103,330L2147,-8Z" fill="#7994a8" stroke="#7994a8" stroke-width="1.51"/><path d="M2103,330L2104,968L2147,-8Z" fill="#5e8ca5" stroke="#5e8ca5" stroke-width="1.51"/><path d="M2104,968L2136,1263L2147,-8Z" fill="#347dae" stroke="#347dae" stroke-width="1.51"/><path d="M1914,-56L2147,-8L2148,-169Z" fill="#869db8" stroke="#869db8" stroke-width="1.51"/><path d="M1906,-244L1914,-56L2148,-169Z" fill="#8ca4c1" stroke="#8ca4c1" stroke-width="1.51"/><path d="M2090,803L1961,905L2104,968Z" fill="#2574ac" stroke="#2574ac" stroke-width="1.51"/><path d="M2076,486L1962,588L2088,657Z" fill="#4c8baf" stroke="#4c8baf" stroke-width="1.51"/><path d="M1912,329L1938,487L2076,486Z" fill="#6196af" stroke="#6196af" stroke-width="1.51"/><path d="M1912,329L2076,486L2103,330Z" fill="#6694aa" stroke="#6694aa" stroke-width="1.51"/><path d="M2104,968L1991,1123L2104,1081Z" fill="#1565a4" stroke="#1565a4" stroke-width="1.51"/><path d="M2088,657L1910,756L2090,803Z" fill="#3583b5" stroke="#3583b5" stroke-width="1.51"/><path d="M1990,168L1912,329L2103,330Z" fill="#729aac" stroke="#729aac" stroke-width="1.51"/><path d="M1961,905L1991,1123L2104,968Z" fill="#1b6daa" stroke="#1b6daa" stroke-width="1.51"/><path d="M1962,588L1910,756L2088,657Z" fill="#418ab6" stroke="#418ab6" stroke-width="1.51"/><path d="M1910,756L1961,905L2090,803Z" fill="#2d7fb4" stroke="#2d7fb4" stroke-width="1.51"/><path d="M1938,487L1962,588L2076,486Z" fill="#5492b1" stroke="#5492b1" stroke-width="1.51"/><path d="M1650,-212L1825,-200L1906,-244Z" fill="#95b3ce" stroke="#95b3ce" stroke-width="1.51"/><path d="M1906,-244L1825,-200L1914,-56Z" fill="#90adc9" stroke="#90adc9" stroke-width="1.51"/><path d="M1737,976L1772,1091L1961,905Z" fill="#1f7ab6" stroke="#1f7ab6" stroke-width="1.51"/><path d="M1914,-56L1815,160L1990,168Z" fill="#83a6ba" stroke="#83a6ba" stroke-width="1.51"/><path d="M1815,160L1912,329L1990,168Z" fill="#79a3b5" stroke="#79a3b5" stroke-width="1.51"/><path d="M1961,905L1772,1091L1991,1123Z" fill="#1771b0" stroke="#1771b0" stroke-width="1.51"/><path d="M1800,1253L1974,1273L1991,1123Z" fill="#0960a3" stroke="#0960a3" stroke-width="1.51"/><path d="M1772,1091L1800,1253L1991,1123Z" fill="#0c6aad" stroke="#0c6aad" stroke-width="1.51"/><path d="M1910,756L1806,808L1961,905Z" fill="#2d85bb" stroke="#2d85bb" stroke-width="1.51"/><path d="M1799,609L1910,756L1962,588Z" fill="#4592bc" stroke="#4592bc" stroke-width="1.51"/><path d="M1825,-200L1820,-78L1914,-56Z" fill="#8eadc7" stroke="#8eadc7" stroke-width="1.51"/><path d="M1820,-78L1815,160L1914,-56Z" fill="#88abc1" stroke="#88abc1" stroke-width="1.51"/><path d="M1912,329L1760,446L1938,487Z" fill="#649eb5" stroke="#649eb5" stroke-width="1.51"/><path d="M1806,808L1737,976L1961,905Z" fill="#2782ba" stroke="#2782ba" stroke-width="1.51"/><path d="M1938,487L1799,609L1962,588Z" fill="#5096b9" stroke="#5096b9" stroke-width="1.51"/><path d="M1815,160L1769,277L1912,329Z" fill="#78a6b6" stroke="#78a6b6" stroke-width="1.51"/><path d="M1760,446L1799,609L1938,487Z" fill="#589cb9" stroke="#589cb9" stroke-width="1.51"/><path d="M1799,609L1806,808L1910,756Z" fill="#3a91c0" stroke="#3a91c0" stroke-width="1.51"/><path d="M1769,277L1760,446L1912,329Z" fill="#6fa5b4" stroke="#6fa5b4" stroke-width="1.51"/><path d="M1646,829L1737,976L1806,808Z" fill="#2e8abe" stroke="#2e8abe" stroke-width="1.51"/><path d="M1799,609L1636,633L1806,808Z" fill="#4399c2" stroke="#4399c2" stroke-width="1.51"/><path d="M1636,633L1646,829L1806,808Z" fill="#3a97c5" stroke="#3a97c5" stroke-width="1.51"/><path d="M1586,117L1815,160L1820,-78Z" fill="#89b1c1" stroke="#89b1c1" stroke-width="1.51"/><path d="M1575,-85L1586,117L1820,-78Z" fill="#8eb8c7" stroke="#8eb8c7" stroke-width="1.51"/><path d="M1650,-212L1820,-78L1825,-200Z" fill="#93b4cc" stroke="#93b4cc" stroke-width="1.51"/><path d="M1772,1091L1616,1142L1800,1253Z" fill="#1570b0" stroke="#1570b0" stroke-width="1.51"/><path d="M1650,-212L1575,-85L1820,-78Z" fill="#93b8cd" stroke="#93b8cd" stroke-width="1.51"/><path d="M1606,488L1636,633L1760,446Z" fill="#5ba7be" stroke="#5ba7be" stroke-width="1.51"/><path d="M1760,446L1636,633L1799,609Z" fill="#54a0be" stroke="#54a0be" stroke-width="1.51"/><path d="M1616,1142L1654,1290L1800,1253Z" fill="#186caa" stroke="#186caa" stroke-width="1.51"/><path d="M1653,281L1769,277L1815,160Z" fill="#7cacb9" stroke="#7cacb9" stroke-width="1.51"/><path d="M1586,117L1653,281L1815,160Z" fill="#82b1bd" stroke="#82b1bd" stroke-width="1.51"/><path d="M1653,281L1760,446L1769,277Z" fill="#73aab6" stroke="#73aab6" stroke-width="1.51"/><path d="M1653,281L1606,488L1760,446Z" fill="#6cabba" stroke="#6cabba" stroke-width="1.51"/><path d="M1737,976L1635,985L1772,1091Z" fill="#227eb7" stroke="#227eb7" stroke-width="1.51"/><path d="M1635,985L1616,1142L1772,1091Z" fill="#207cb6" stroke="#207cb6" stroke-width="1.51"/><path d="M1646,829L1635,985L1737,976Z" fill="#2a88bd" stroke="#2a88bd" stroke-width="1.51"/><path d="M1575,-85L1468,-38L1586,117Z" fill="#92bfca" stroke="#92bfca" stroke-width="1.51"/><path d="M1497,252L1444,450L1606,488Z" fill="#71b5bf" stroke="#71b5bf" stroke-width="1.51"/><path d="M1475,950L1416,1073L1616,1142Z" fill="#2b87bc" stroke="#2b87bc" stroke-width="1.51"/><path d="M1475,950L1616,1142L1635,985Z" fill="#2785bb" stroke="#2785bb" stroke-width="1.51"/><path d="M1475,950L1635,985L1646,829Z" fill="#2e8ec0" stroke="#2e8ec0" stroke-width="1.51"/><path d="M1636,633L1445,792L1646,829Z" fill="#3d9fc8" stroke="#3d9fc8" stroke-width="1.51"/><path d="M1497,252L1606,488L1653,281Z" fill="#76b2ba" stroke="#76b2ba" stroke-width="1.51"/><path d="M1586,117L1497,252L1653,281Z" fill="#82b7bf" stroke="#82b7bf" stroke-width="1.51"/><path d="M1616,1142L1499,1308L1654,1290Z" fill="#1e71ab" stroke="#1e71ab" stroke-width="1.51"/><path d="M1437,-222L1575,-85L1650,-212Z" fill="#9ac2d3" stroke="#9ac2d3" stroke-width="1.51"/><path d="M1606,488L1420,610L1636,633Z" fill="#57aac4" stroke="#57aac4" stroke-width="1.51"/><path d="M1420,610L1445,792L1636,633Z" fill="#4ca8c9" stroke="#4ca8c9" stroke-width="1.51"/><path d="M1445,792L1475,950L1646,829Z" fill="#3898c5" stroke="#3898c5" stroke-width="1.51"/><path d="M1500,140L1497,252L1586,117Z" fill="#88bcc2" stroke="#88bcc2" stroke-width="1.51"/><path d="M1468,-38L1500,140L1586,117Z" fill="#8fbfc7" stroke="#8fbfc7" stroke-width="1.51"/><path d="M1444,450L1420,610L1606,488Z" fill="#62b2c3" stroke="#62b2c3" stroke-width="1.51"/><path d="M1416,1073L1499,1308L1616,1142Z" fill="#247cb6" stroke="#247cb6" stroke-width="1.51"/><path d="M1437,-222L1468,-38L1575,-85Z" fill="#99c5d2" stroke="#99c5d2" stroke-width="1.51"/><path d="M1167,1260L937,1278L1307,1309Z" fill="#4185af" stroke="#4185af" stroke-width="1.51"/><path d="M1437,-222L1303,-159L1468,-38Z" fill="#9ecbd6" stroke="#9ecbd6" stroke-width="1.51"/><path d="M1290,253L1444,450L1497,252Z" fill="#7fbfc0" stroke="#7fbfc0" stroke-width="1.51"/><path d="M1416,1073L1319,1106L1499,1308Z" fill="#2b83ba" stroke="#2b83ba" stroke-width="1.51"/><path d="M1319,1106L1307,1309L1499,1308Z" fill="#2d7db3" stroke="#2d7db3" stroke-width="1.51"/><path d="M1313,162L1497,252L1500,140Z" fill="#8ac2c5" stroke="#8ac2c5" stroke-width="1.51"/><path d="M1468,-38L1313,162L1500,140Z" fill="#92c5c9" stroke="#92c5c9" stroke-width="1.51"/><path d="M1313,162L1290,253L1497,252Z" fill="#8ac5c6" stroke="#8ac5c6" stroke-width="1.51"/><path d="M1445,792L1303,938L1475,950Z" fill="#3b9cc7" stroke="#3b9cc7" stroke-width="1.51"/><path d="M1164,-205L1303,-159L1437,-222Z" fill="#a6d3dc" stroke="#a6d3dc" stroke-width="1.51"/><path d="M1290,253L1274,470L1444,450Z" fill="#79c1c4" stroke="#79c1c4" stroke-width="1.51"/><path d="M1420,610L1245,658L1445,792Z" fill="#52b0ce" stroke="#52b0ce" stroke-width="1.51"/><path d="M1270,-53L1313,162L1468,-38Z" fill="#98cbd0" stroke="#98cbd0" stroke-width="1.51"/><path d="M1303,-159L1270,-53L1468,-38Z" fill="#9ecdd5" stroke="#9ecdd5" stroke-width="1.51"/><path d="M1303,938L1416,1073L1475,950Z" fill="#3594c3" stroke="#3594c3" stroke-width="1.51"/><path d="M1274,470L1420,610L1444,450Z" fill="#67b9c7" stroke="#67b9c7" stroke-width="1.51"/><path d="M1245,658L1260,804L1445,792Z" fill="#4bafd1" stroke="#4bafd1" stroke-width="1.51"/><path d="M1260,804L1303,938L1445,792Z" fill="#43a5cc" stroke="#43a5cc" stroke-width="1.51"/><path d="M1303,938L1319,1106L1416,1073Z" fill="#3593c2" stroke="#3593c2" stroke-width="1.51"/><path d="M1274,470L1245,658L1420,610Z" fill="#61bacc" stroke="#61bacc" stroke-width="1.51"/><path d="M816,-193L983,-158L1164,-205Z" fill="#b5e1d5" stroke="#b5e1d5" stroke-width="1.51"/><path d="M1149,610L1245,658L1274,470Z" fill="#67bfcc" stroke="#67bfcc" stroke-width="1.51"/><path d="M1163,293L1274,470L1290,253Z" fill="#84c9c4" stroke="#84c9c4" stroke-width="1.51"/><path d="M1085,927L1161,1152L1303,938Z" fill="#459ec4" stroke="#459ec4" stroke-width="1.51"/><path d="M1270,-53L1155,108L1313,162Z" fill="#9ad1cf" stroke="#9ad1cf" stroke-width="1.51"/><path d="M1303,938L1161,1152L1319,1106Z" fill="#3a95c4" stroke="#3a95c4" stroke-width="1.51"/><path d="M1167,1260L1307,1309L1319,1106Z" fill="#3486b8" stroke="#3486b8" stroke-width="1.51"/><path d="M1161,1152L1167,1260L1319,1106Z" fill="#3b8dbd" stroke="#3b8dbd" stroke-width="1.51"/><path d="M1155,108L1290,253L1313,162Z" fill="#93ceca" stroke="#93ceca" stroke-width="1.51"/><path d="M1164,-205L1270,-53L1303,-159Z" fill="#a5d5da" stroke="#a5d5da" stroke-width="1.51"/><path d="M1260,804L1085,927L1303,938Z" fill="#49a7ca" stroke="#49a7ca" stroke-width="1.51"/><path d="M1163,293L1105,456L1274,470Z" fill="#7fc8c5" stroke="#7fc8c5" stroke-width="1.51"/><path d="M1155,108L1163,293L1290,253Z" fill="#91cec7" stroke="#91cec7" stroke-width="1.51"/><path d="M1111,-39L1155,108L1270,-53Z" fill="#a1d5d1" stroke="#a1d5d1" stroke-width="1.51"/><path d="M1245,658L1118,778L1260,804Z" fill="#54b5d2" stroke="#54b5d2" stroke-width="1.51"/><path d="M1118,778L1085,927L1260,804Z" fill="#52afcc" stroke="#52afcc" stroke-width="1.51"/><path d="M1164,-205L1111,-39L1270,-53Z" fill="#a6d7d6" stroke="#a6d7d6" stroke-width="1.51"/><path d="M1105,456L1149,610L1274,470Z" fill="#72c4c9" stroke="#72c4c9" stroke-width="1.51"/><path d="M1149,610L1118,778L1245,658Z" fill="#5fbbce" stroke="#5fbbce" stroke-width="1.51"/><path d="M938,621L965,772L1118,778Z" fill="#66bfcc" stroke="#66bfcc" stroke-width="1.51"/><path d="M938,621L1118,778L1149,610Z" fill="#68bfcc" stroke="#68bfcc" stroke-width="1.51"/><path d="M960,117L955,263L1155,108Z" fill="#a0d8c5" stroke="#a0d8c5" stroke-width="1.51"/><path d="M1085,927L994,1127L1161,1152Z" fill="#4c9cbf" stroke="#4c9cbf" stroke-width="1.51"/><path d="M1155,108L955,263L1163,293Z" fill="#97d3c4" stroke="#97d3c4" stroke-width="1.51"/><path d="M955,263L1105,456L1163,293Z" fill="#8dd0c0" stroke="#8dd0c0" stroke-width="1.51"/><path d="M983,-158L1111,-39L1164,-205Z" fill="#addbd6" stroke="#addbd6" stroke-width="1.51"/><path d="M1161,1152L994,1127L1167,1260Z" fill="#4691ba" stroke="#4691ba" stroke-width="1.51"/><path d="M994,1127L937,1278L1167,1260Z" fill="#4b8fb4" stroke="#4b8fb4" stroke-width="1.51"/><path d="M1111,-39L960,117L1155,108Z" fill="#a3d8cb" stroke="#a3d8cb" stroke-width="1.51"/><path d="M991,-37L960,117L1111,-39Z" fill="#a9dbcc" stroke="#a9dbcc" stroke-width="1.51"/><path d="M1105,456L933,504L1149,610Z" fill="#77c8c6" stroke="#77c8c6" stroke-width="1.51"/><path d="M933,504L938,621L1149,610Z" fill="#75c7c7" stroke="#75c7c7" stroke-width="1.51"/><path d="M955,263L933,504L1105,456Z" fill="#89d0c0" stroke="#89d0c0" stroke-width="1.51"/><path d="M983,-158L991,-37L1111,-39Z" fill="#addcd1" stroke="#addcd1" stroke-width="1.51"/><path d="M965,772L1085,927L1118,778Z" fill="#5bb4ca" stroke="#5bb4ca" stroke-width="1.51"/><path d="M924,905L994,1127L1085,927Z" fill="#56a7c1" stroke="#56a7c1" stroke-width="1.51"/><path d="M965,772L924,905L1085,927Z" fill="#5db2c7" stroke="#5db2c7" stroke-width="1.51"/><path d="M-233,-246L-68,-207L323,-232Z" fill="#eaf7e3" stroke="#eaf7e3" stroke-width="1.51"/><path d="M790,283L748,447L933,504Z" fill="#94d5bd" stroke="#94d5bd" stroke-width="1.51"/><path d="M789,1234L651,1309L937,1278Z" fill="#6090a9" stroke="#6090a9" stroke-width="1.51"/><path d="M790,283L933,504L955,263Z" fill="#96d6bc" stroke="#96d6bc" stroke-width="1.51"/><path d="M778,94L960,117L991,-37Z" fill="#addec7" stroke="#addec7" stroke-width="1.51"/><path d="M753,-72L778,94L991,-37Z" fill="#b5e2c8" stroke="#b5e2c8" stroke-width="1.51"/><path d="M983,-158L816,-193L991,-37Z" fill="#b5e2d1" stroke="#b5e2d1" stroke-width="1.51"/><path d="M816,-193L753,-72L991,-37Z" fill="#b8e3ce" stroke="#b8e3ce" stroke-width="1.51"/><path d="M924,905L806,953L994,1127Z" fill="#5ea9bf" stroke="#5ea9bf" stroke-width="1.51"/><path d="M806,953L811,1130L994,1127Z" fill="#5fa3bb" stroke="#5fa3bb" stroke-width="1.51"/><path d="M811,1130L937,1278L994,1127Z" fill="#5798b6" stroke="#5798b6" stroke-width="1.51"/><path d="M938,621L779,758L965,772Z" fill="#71c3c9" stroke="#71c3c9" stroke-width="1.51"/><path d="M811,1130L789,1234L937,1278Z" fill="#5c95b0" stroke="#5c95b0" stroke-width="1.51"/><path d="M805,615L779,758L938,621Z" fill="#7ac8c6" stroke="#7ac8c6" stroke-width="1.51"/><path d="M790,283L955,263L960,117Z" fill="#a1dac0" stroke="#a1dac0" stroke-width="1.51"/><path d="M778,94L790,283L960,117Z" fill="#abddc0" stroke="#abddc0" stroke-width="1.51"/><path d="M779,758L924,905L965,772Z" fill="#6abbc7" stroke="#6abbc7" stroke-width="1.51"/><path d="M933,504L805,615L938,621Z" fill="#7dcbc4" stroke="#7dcbc4" stroke-width="1.51"/><path d="M779,758L806,953L924,905Z" fill="#6bb6c2" stroke="#6bb6c2" stroke-width="1.51"/><path d="M748,447L805,615L933,504Z" fill="#88d0c1" stroke="#88d0c1" stroke-width="1.51"/><path d="M778,94L652,155L790,283Z" fill="#b0e0bd" stroke="#b0e0bd" stroke-width="1.51"/><path d="M652,155L659,265L790,283Z" fill="#aedfba" stroke="#aedfba" stroke-width="1.51"/><path d="M677,622L779,758L805,615Z" fill="#81cac4" stroke="#81cac4" stroke-width="1.51"/><path d="M748,447L677,622L805,615Z" fill="#8bd0c0" stroke="#8bd0c0" stroke-width="1.51"/><path d="M779,758L673,917L806,953Z" fill="#72b8c1" stroke="#72b8c1" stroke-width="1.51"/><path d="M673,917L652,1081L806,953Z" fill="#70afba" stroke="#70afba" stroke-width="1.51"/><path d="M806,953L652,1081L811,1130Z" fill="#6aa7b8" stroke="#6aa7b8" stroke-width="1.51"/><path d="M652,1081L789,1234L811,1130Z" fill="#679eb5" stroke="#679eb5" stroke-width="1.51"/><path d="M603,-221L753,-72L816,-193Z" fill="#c4e8ce" stroke="#c4e8ce" stroke-width="1.51"/><path d="M623,827L673,917L779,758Z" fill="#7bbec1" stroke="#7bbec1" stroke-width="1.51"/><path d="M659,265L748,447L790,283Z" fill="#a3dab7" stroke="#a3dab7" stroke-width="1.51"/><path d="M603,-221L622,-80L753,-72Z" fill="#c6e9ca" stroke="#c6e9ca" stroke-width="1.51"/><path d="M753,-72L622,-80L778,94Z" fill="#bde5c6" stroke="#bde5c6" stroke-width="1.51"/><path d="M622,-80L652,155L778,94Z" fill="#bce5c2" stroke="#bce5c2" stroke-width="1.51"/><path d="M652,1081L651,1309L789,1234Z" fill="#6a99ae" stroke="#6a99ae" stroke-width="1.51"/><path d="M677,622L623,827L779,758Z" fill="#80c7c5" stroke="#80c7c5" stroke-width="1.51"/><path d="M594,458L677,622L748,447Z" fill="#95d5bc" stroke="#95d5bc" stroke-width="1.51"/><path d="M659,265L594,458L748,447Z" fill="#a2dab8" stroke="#a2dab8" stroke-width="1.51"/><path d="M284,1261L156,1284L486,1306Z" fill="#7e99ae" stroke="#7e99ae" stroke-width="1.51"/><path d="M459,1131L486,1306L651,1309Z" fill="#7399ab" stroke="#7399ab" stroke-width="1.51"/><path d="M459,1131L651,1309L652,1081Z" fill="#72a0b2" stroke="#72a0b2" stroke-width="1.51"/><path d="M622,-80L447,-2L652,155Z" fill="#c4e8c4" stroke="#c4e8c4" stroke-width="1.51"/><path d="M447,-2L424,113L652,155Z" fill="#c5e8c2" stroke="#c5e8c2" stroke-width="1.51"/><path d="M495,312L594,458L659,265Z" fill="#abdeb7" stroke="#abdeb7" stroke-width="1.51"/><path d="M445,922L652,1081L673,917Z" fill="#7ab3bb" stroke="#7ab3bb" stroke-width="1.51"/><path d="M594,458L455,629L677,622Z" fill="#96d4c0" stroke="#96d4c0" stroke-width="1.51"/><path d="M468,782L623,827L677,622Z" fill="#87c9c6" stroke="#87c9c6" stroke-width="1.51"/><path d="M455,629L468,782L677,622Z" fill="#90cec5" stroke="#90cec5" stroke-width="1.51"/><path d="M323,-232L422,-177L603,-221Z" fill="#d8f0d3" stroke="#d8f0d3" stroke-width="1.51"/><path d="M623,827L445,922L673,917Z" fill="#7ebbbf" stroke="#7ebbbf" stroke-width="1.51"/><path d="M445,922L459,1131L652,1081Z" fill="#7caeba" stroke="#7caeba" stroke-width="1.51"/><path d="M652,155L495,312L659,265Z" fill="#b3e1b9" stroke="#b3e1b9" stroke-width="1.51"/><path d="M424,113L495,312L652,155Z" fill="#bce5be" stroke="#bce5be" stroke-width="1.51"/><path d="M495,312L468,437L594,458Z" fill="#a9ddbb" stroke="#a9ddbb" stroke-width="1.51"/><path d="M468,437L455,629L594,458Z" fill="#9fd9bf" stroke="#9fd9bf" stroke-width="1.51"/><path d="M603,-221L422,-177L622,-80Z" fill="#cfedce" stroke="#cfedce" stroke-width="1.51"/><path d="M422,-177L447,-2L622,-80Z" fill="#ceeccc" stroke="#ceeccc" stroke-width="1.51"/><path d="M468,782L445,922L623,827Z" fill="#86c1c3" stroke="#86c1c3" stroke-width="1.51"/><path d="M-68,-207L98,-166L323,-232Z" fill="#e4f5de" stroke="#e4f5de" stroke-width="1.51"/><path d="M422,-177L316,-60L447,-2Z" fill="#d3eece" stroke="#d3eece" stroke-width="1.51"/><path d="M445,922L300,937L459,1131Z" fill="#84b4bf" stroke="#84b4bf" stroke-width="1.51"/><path d="M303,620L455,629L468,437Z" fill="#a0d8c4" stroke="#a0d8c4" stroke-width="1.51"/><path d="M459,1131L284,1261L486,1306Z" fill="#7b9db0" stroke="#7b9db0" stroke-width="1.51"/><path d="M290,279L468,437L495,312Z" fill="#b5e2bb" stroke="#b5e2bb" stroke-width="1.51"/><path d="M424,113L290,279L495,312Z" fill="#bfe6bf" stroke="#bfe6bf" stroke-width="1.51"/><path d="M300,937L288,1152L459,1131Z" fill="#85afbd" stroke="#85afbd" stroke-width="1.51"/><path d="M288,1152L284,1261L459,1131Z" fill="#81a4b7" stroke="#81a4b7" stroke-width="1.51"/><path d="M264,420L303,620L468,437Z" fill="#abddc3" stroke="#abddc3" stroke-width="1.51"/><path d="M290,279L264,420L468,437Z" fill="#b6e2be" stroke="#b6e2be" stroke-width="1.51"/><path d="M455,629L303,620L468,782Z" fill="#98d1c8" stroke="#98d1c8" stroke-width="1.51"/><path d="M325,108L290,279L424,113Z" fill="#c8e9c3" stroke="#c8e9c3" stroke-width="1.51"/><path d="M300,937L445,922L468,782Z" fill="#8bbfc4" stroke="#8bbfc4" stroke-width="1.51"/><path d="M252,787L300,937L468,782Z" fill="#91c6c8" stroke="#91c6c8" stroke-width="1.51"/><path d="M303,620L252,787L468,782Z" fill="#98d0cc" stroke="#98d0cc" stroke-width="1.51"/><path d="M325,108L424,113L447,-2Z" fill="#cbebc6" stroke="#cbebc6" stroke-width="1.51"/><path d="M316,-60L325,108L447,-2Z" fill="#d1edca" stroke="#d1edca" stroke-width="1.51"/><path d="M323,-232L316,-60L422,-177Z" fill="#daf0d3" stroke="#daf0d3" stroke-width="1.51"/><path d="M135,963L288,1152L300,937Z" fill="#8bb5c3" stroke="#8bb5c3" stroke-width="1.51"/><path d="M136,630L252,787L303,620Z" fill="#9fd4ce" stroke="#9fd4ce" stroke-width="1.51"/><path d="M264,420L161,499L303,620Z" fill="#acdec7" stroke="#acdec7" stroke-width="1.51"/><path d="M98,-166L114,-55L316,-60Z" fill="#ddf2d7" stroke="#ddf2d7" stroke-width="1.51"/><path d="M114,-55L103,87L316,-60Z" fill="#d8f0d2" stroke="#d8f0d2" stroke-width="1.51"/><path d="M98,-166L316,-60L323,-232Z" fill="#ddf2d7" stroke="#ddf2d7" stroke-width="1.51"/><path d="M316,-60L103,87L325,108Z" fill="#d3eecd" stroke="#d3eecd" stroke-width="1.51"/><path d="M103,87L290,279L325,108Z" fill="#cdecc7" stroke="#cdecc7" stroke-width="1.51"/><path d="M135,963L121,1160L288,1152Z" fill="#89afc2" stroke="#89afc2" stroke-width="1.51"/><path d="M156,1284L284,1261L288,1152Z" fill="#81a0b5" stroke="#81a0b5" stroke-width="1.51"/><path d="M89,313L264,420L290,279Z" fill="#bee6c1" stroke="#bee6c1" stroke-width="1.51"/><path d="M103,87L89,313L290,279Z" fill="#caeac7" stroke="#caeac7" stroke-width="1.51"/><path d="M252,787L135,963L300,937Z" fill="#91c1c9" stroke="#91c1c9" stroke-width="1.51"/><path d="M161,499L136,630L303,620Z" fill="#a7dbcb" stroke="#a7dbcb" stroke-width="1.51"/><path d="M121,1160L156,1284L288,1152Z" fill="#85a4bb" stroke="#85a4bb" stroke-width="1.51"/><path d="M136,630L110,748L252,787Z" fill="#9ed3d1" stroke="#9ed3d1" stroke-width="1.51"/><path d="M110,748L135,963L252,787Z" fill="#97c8ce" stroke="#97c8ce" stroke-width="1.51"/><path d="M89,313L161,499L264,420Z" fill="#b9e3c6" stroke="#b9e3c6" stroke-width="1.51"/><path d="M-37,126L89,313L103,87Z" fill="#d2edcd" stroke="#d2edcd" stroke-width="1.51"/><path d="M110,748L-39,773L135,963Z" fill="#9acad2" stroke="#9acad2" stroke-width="1.51"/><path d="M-54,1148L121,1160L135,963Z" fill="#8db0c6" stroke="#8db0c6" stroke-width="1.51"/><path d="M-69,971L-54,1148L135,963Z" fill="#91b7cb" stroke="#91b7cb" stroke-width="1.51"/><path d="M121,1160L17,1276L156,1284Z" fill="#86a1b9" stroke="#86a1b9" stroke-width="1.51"/><path d="M89,313L-40,418L161,499Z" fill="#bce5c9" stroke="#bce5c9" stroke-width="1.51"/><path d="M6,596L136,630L161,499Z" fill="#acdccf" stroke="#acdccf" stroke-width="1.51"/><path d="M-40,418L6,596L161,499Z" fill="#b3e1cd" stroke="#b3e1cd" stroke-width="1.51"/><path d="M-39,773L-69,971L135,963Z" fill="#98c3d1" stroke="#98c3d1" stroke-width="1.51"/><path d="M6,596L110,748L136,630Z" fill="#a6d8d2" stroke="#a6d8d2" stroke-width="1.51"/><path d="M-37,126L-38,331L89,313Z" fill="#ccebcc" stroke="#ccebcc" stroke-width="1.51"/><path d="M-73,-71L-37,126L103,87Z" fill="#dcf1d5" stroke="#dcf1d5" stroke-width="1.51"/><path d="M6,596L-39,773L110,748Z" fill="#a3d5d6" stroke="#a3d5d6" stroke-width="1.51"/><path d="M-73,-71L103,87L114,-55Z" fill="#dcf1d7" stroke="#dcf1d7" stroke-width="1.51"/><path d="M98,-166L-73,-71L114,-55Z" fill="#e1f4db" stroke="#e1f4db" stroke-width="1.51"/><path d="M-54,1148L17,1276L121,1160Z" fill="#89a6c0" stroke="#89a6c0" stroke-width="1.51"/><path d="M-38,331L-40,418L89,313Z" fill="#c3e8ca" stroke="#c3e8ca" stroke-width="1.51"/><path d="M-68,-207L-73,-71L98,-166Z" fill="#e6f5e0" stroke="#e6f5e0" stroke-width="1.51"/><path d="M-235,444L-176,664L-40,418Z" fill="#bae4d4" stroke="#bae4d4" stroke-width="1.51"/><path d="M-189,265L-38,331L-37,126Z" fill="#d1edcf" stroke="#d1edcf" stroke-width="1.51"/><path d="M-176,664L-39,773L6,596Z" fill="#aad8d8" stroke="#aad8d8" stroke-width="1.51"/><path d="M-40,418L-176,664L6,596Z" fill="#b3e0d3" stroke="#b3e0d3" stroke-width="1.51"/><path d="M-54,1148L-215,1253L17,1276Z" fill="#8ca4c1" stroke="#8ca4c1" stroke-width="1.51"/><path d="M-177,932L-69,971L-39,773Z" fill="#9cc6d4" stroke="#9cc6d4" stroke-width="1.51"/><path d="M-240,-12L-208,104L-73,-71Z" fill="#e4f5dd" stroke="#e4f5dd" stroke-width="1.51"/><path d="M-69,971L-202,1119L-54,1148Z" fill="#93b4cc" stroke="#93b4cc" stroke-width="1.51"/><path d="M-176,664L-202,824L-39,773Z" fill="#a6d5dd" stroke="#a6d5dd" stroke-width="1.51"/><path d="M-202,824L-177,932L-39,773Z" fill="#a1cbd8" stroke="#a1cbd8" stroke-width="1.51"/><path d="M-235,444L-40,418L-38,331Z" fill="#c3e8cf" stroke="#c3e8cf" stroke-width="1.51"/><path d="M-189,265L-235,444L-38,331Z" fill="#caeacf" stroke="#caeacf" stroke-width="1.51"/><path d="M-73,-71L-208,104L-37,126Z" fill="#dff3d8" stroke="#dff3d8" stroke-width="1.51"/><path d="M-208,104L-189,265L-37,126Z" fill="#daf0d4" stroke="#daf0d4" stroke-width="1.51"/><path d="M-177,932L-202,1119L-69,971Z" fill="#98bbd1" stroke="#98bbd1" stroke-width="1.51"/><path d="M-233,-246L-73,-71L-68,-207Z" fill="#ebf7e5" stroke="#ebf7e5" stroke-width="1.51"/><path d="M-202,1119L-215,1253L-54,1148Z" fill="#91abc9" stroke="#91abc9" stroke-width="1.51"/><path d="M-233,-246L-240,-12L-73,-71Z" fill="#eaf7e3" stroke="#eaf7e3" stroke-width="1.51"/><path d="M-202,824L-202,1119L-177,932Z" fill="#9bc1d4" stroke="#9bc1d4" stroke-width="1.51"/><path d="M-235,444L-202,824L-176,664Z" fill="#b1dcdc" stroke="#b1dcdc" stroke-width="1.51"/><path d="M-208,104L-235,444L-189,265Z" fill="#d3eed2" stroke="#d3eed2" stroke-width="1.51"/><path d="M-240,-12L-235,444L-208,104Z" fill="#dbf2d7" stroke="#dbf2d7" stroke-width="1.51"/><path d="M-235,444L-215,1253L-202,824Z" fill="#a4cddb" stroke="#a4cddb" stroke-width="1.51"/><path d="M-202,824L-215,1253L-202,1119Z" fill="#98b6d0" stroke="#98b6d0" stroke-width="1.51"/></svg>